<svg width="47" height="49" viewBox="0 0 47 49" fill="none" xmlns="http://www.w3.org/2000/svg">
<g id="Group 32">
<path id="Vector" d="M17.8791 1.58045C23.3819 0.310956 29.1388 1.13913 34.1062 3.91477C38.98 6.68097 42.7076 11.2193 44.5792 16.6656C45.6946 20.2511 46.16 24.0218 45.9516 27.7849C45.7888 30.4316 45.1041 33.0147 43.94 35.3728C42.7759 37.7309 41.1575 39.8133 39.1862 41.4896C35.0218 45.2887 29.7794 47.563 24.2591 47.9653C20.5402 48.1772 16.8297 47.4155 13.4655 45.7495C10.1013 44.0835 7.19049 41.5664 4.99835 38.4273C2.93341 35.3067 1.62103 31.7128 1.17256 27.9506C0.724093 24.1883 1.15289 20.3689 2.42236 16.8162C3.62768 13.1645 5.66311 9.87127 8.35479 7.21808C11.0465 4.56488 14.3143 2.63057 17.8791 1.58045Z" fill="#F35A05"/>
<path id="Intersect" d="M21.4895 47.9436C18.7149 47.7419 15.9925 47.001 13.4655 45.7495C11.5024 44.7773 9.69363 43.5154 8.09195 42.009C8.02286 41.7822 7.99222 41.5449 8.00168 41.3071C8.01297 41.0227 8.08139 40.7437 8.20273 40.4863C8.32413 40.2292 8.49594 39.9993 8.70798 39.8101C8.92007 39.6211 9.16812 39.4768 9.43704 39.386C10.5345 38.9966 11.4227 39.5513 12.2938 40.0952C12.6881 40.3416 13.0788 40.5857 13.4839 40.739H13.5085C14.8409 41.3201 16.2191 41.7891 17.629 42.1414C21.2919 42.822 25.0541 42.7551 28.6907 41.9446C32.2667 40.833 35.5453 38.9238 38.2807 36.3604C40.1998 34.5918 41.7 32.4146 42.6711 29.9888C44.4757 26.7498 45.0176 22.9541 44.1918 19.3369C44.0642 18.8477 44.1344 18.3279 44.387 17.8901C44.4959 17.7017 44.6349 17.5349 44.7967 17.3955C45.7545 20.7612 46.1459 24.2764 45.9516 27.7849C45.7888 30.4316 45.1041 33.0146 43.94 35.3728C42.776 37.731 41.1576 39.8132 39.1862 41.4895C35.9186 44.4707 31.9872 46.5129 27.7787 47.4485C26.0701 47.6433 24.3526 47.7522 22.6326 47.7747C22.2535 47.8499 21.872 47.906 21.4895 47.9436Z" fill="#D8570E"/>
<path id="Vector_2" d="M17.7667 1.09324L17.7521 1.0966L17.7378 1.10082C14.0927 2.17463 10.7531 4.152 8.00379 6.86199C5.25601 9.57048 3.17944 12.9303 1.94946 16.6537C0.65546 20.2778 0.218738 24.1731 0.676078 28.0097C1.13366 31.8484 2.47283 35.5167 4.58138 38.7033L4.58124 38.7033L4.58842 38.7136C6.82766 41.9201 9.8026 44.4936 13.2436 46.1976C16.6848 47.9017 20.4815 48.6814 24.2876 48.4645L24.2876 48.4646L24.2955 48.464C29.927 48.0536 35.2722 45.7345 39.5168 41.8648C41.5379 40.1446 43.1959 38.0097 44.3883 35.5942C45.5821 33.176 46.2838 30.5279 46.4506 27.8156L46.4508 27.8126C46.6625 23.9901 46.1898 20.1598 45.0567 16.5171L45.0545 16.51L45.0521 16.5031C43.142 10.945 39.336 6.30811 34.3531 3.47992L34.3501 3.47829C29.2753 0.642611 23.3914 -0.204383 17.7667 1.09324Z" stroke="white"/>
<path id="Vector_3" d="M32.983 24.1585L32.9978 24.2275C33.0049 24.293 32.9946 24.3594 32.9679 24.4189C32.9412 24.4783 32.8993 24.5284 32.8471 24.5631C29.3612 26.9386 25.4185 29.639 21.6082 31.9502C21.5634 31.9796 21.5125 31.9966 21.4601 31.9995C21.4077 32.0025 21.3554 31.9913 21.3081 31.967C21.2586 31.943 21.2153 31.9063 21.1818 31.8602C21.1484 31.8141 21.1259 31.76 21.1162 31.7024C20.5282 28.3679 19.7652 23.8416 19.0058 18.4204C18.9946 18.357 18.9997 18.2914 19.0206 18.2309C19.0415 18.1703 19.0774 18.1171 19.1244 18.0769C19.1714 18.0367 19.2277 18.0111 19.2872 18.0029C19.3467 17.9947 19.4072 18.0041 19.462 18.0303L32.7798 23.904C32.83 23.926 32.8746 23.9606 32.9099 24.0048C32.9453 24.0491 32.9703 24.1017 32.983 24.1585Z" fill="white"/>
</g>
</svg>
