<svg width="93" height="42" viewBox="0 0 93 42" fill="none" xmlns="http://www.w3.org/2000/svg">
<rect x="1" y="1" width="91" height="40" rx="20" stroke="#F35A05"/>
<path d="M23.14 16.298H24.904V26H23.14V21.702H18.926V26H17.162V16.298H18.926V20.176H23.14V16.298ZM28.6665 21.142C28.6665 21.674 28.7318 22.1593 28.8625 22.598C28.9932 23.0273 29.1798 23.396 29.4225 23.704C29.6745 24.0027 29.9778 24.236 30.3325 24.404C30.6872 24.572 31.0885 24.656 31.5365 24.656C31.9752 24.656 32.3718 24.572 32.7265 24.404C33.0812 24.236 33.3798 24.0027 33.6225 23.704C33.8745 23.396 34.0658 23.0273 34.1965 22.598C34.3272 22.1593 34.3925 21.674 34.3925 21.142C34.3925 20.61 34.3272 20.1293 34.1965 19.7C34.0658 19.2613 33.8745 18.8927 33.6225 18.594C33.3798 18.286 33.0812 18.048 32.7265 17.88C32.3718 17.712 31.9752 17.628 31.5365 17.628C31.0885 17.628 30.6872 17.712 30.3325 17.88C29.9778 18.048 29.6745 18.286 29.4225 18.594C29.1798 18.902 28.9932 19.2707 28.8625 19.7C28.7318 20.1293 28.6665 20.61 28.6665 21.142ZM36.2405 21.142C36.2405 21.9727 36.1145 22.7053 35.8625 23.34C35.6198 23.9747 35.2838 24.5067 34.8545 24.936C34.4345 25.356 33.9398 25.6733 33.3705 25.888C32.8012 26.1027 32.1945 26.21 31.5505 26.21C30.9065 26.21 30.2952 26.1027 29.7165 25.888C29.1472 25.6733 28.6478 25.356 28.2185 24.936C27.7985 24.5067 27.4625 23.9747 27.2105 23.34C26.9585 22.7053 26.8325 21.9727 26.8325 21.142C26.8325 20.3113 26.9585 19.5833 27.2105 18.958C27.4625 18.3233 27.8032 17.7913 28.2325 17.362C28.6712 16.9327 29.1752 16.6107 29.7445 16.396C30.3138 16.1813 30.9158 16.074 31.5505 16.074C32.1852 16.074 32.7872 16.1813 33.3565 16.396C33.9258 16.6107 34.4205 16.9327 34.8405 17.362C35.2698 17.7913 35.6105 18.3233 35.8625 18.958C36.1145 19.5833 36.2405 20.3113 36.2405 21.142ZM42.4842 23.102C42.2508 23.6247 42.0082 24.082 41.7562 24.474C41.5135 24.8567 41.2428 25.174 40.9442 25.426C40.6548 25.678 40.3282 25.8647 39.9642 25.986C39.6095 26.1073 39.2082 26.168 38.7602 26.168C38.4895 26.168 38.2048 26.14 37.9062 26.084C37.6168 26.028 37.3788 25.958 37.1922 25.874L37.5142 24.418C37.6915 24.4927 37.8782 24.5533 38.0742 24.6C38.2702 24.6373 38.4708 24.656 38.6762 24.656C39.1055 24.656 39.4602 24.558 39.7402 24.362C40.0295 24.166 40.2955 23.844 40.5382 23.396C40.1462 22.7613 39.7682 22.122 39.4042 21.478C39.0495 20.834 38.7182 20.2087 38.4102 19.602C38.1022 18.986 37.8175 18.398 37.5562 17.838C37.3042 17.278 37.0755 16.7647 36.8702 16.298H38.8442C38.9935 16.6807 39.1615 17.0913 39.3482 17.53C39.5442 17.9687 39.7495 18.4213 39.9642 18.888C40.1882 19.3547 40.4215 19.8307 40.6642 20.316C40.9068 20.8013 41.1495 21.2867 41.3922 21.772C41.7282 20.9413 42.0502 20.0547 42.3582 19.112C42.6662 18.1693 42.9555 17.2313 43.2262 16.298H45.1302C44.9062 16.9887 44.6822 17.642 44.4582 18.258C44.2342 18.8647 44.0102 19.448 43.7862 20.008C43.5715 20.5587 43.3522 21.0907 43.1282 21.604C42.9135 22.108 42.6988 22.6073 42.4842 23.102ZM45.4021 21.226H49.1681V22.78H45.4021V21.226ZM56.0293 26C55.7586 25.4493 55.4179 24.8427 55.0073 24.18C54.5966 23.5173 54.1673 22.878 53.7193 22.262C53.5326 22.5047 53.3273 22.794 53.1033 23.13C52.8886 23.466 52.6693 23.8113 52.4453 24.166C52.2306 24.5113 52.0299 24.8473 51.8433 25.174C51.6566 25.5007 51.5073 25.776 51.3953 26H49.3933C49.8133 25.2067 50.2986 24.3947 50.8493 23.564C51.3999 22.724 51.9973 21.8467 52.6413 20.932L49.5333 16.298H51.6333L53.7753 19.616L55.8893 16.298H57.9053L54.8393 20.918C55.5486 21.8793 56.1739 22.7893 56.7153 23.648C57.2659 24.5067 57.7279 25.2907 58.1013 26H56.0293ZM66.2583 26C66.1276 25.6173 65.9923 25.2393 65.8522 24.866C65.7123 24.4927 65.5769 24.11 65.4463 23.718H61.3583C61.2276 24.11 61.0923 24.4973 60.9523 24.88C60.8216 25.2533 60.6909 25.6267 60.5603 26H58.7263C59.0903 24.964 59.4356 24.0073 59.7623 23.13C60.0889 22.2527 60.4063 21.422 60.7142 20.638C61.0316 19.854 61.3443 19.1073 61.6523 18.398C61.9603 17.6887 62.2776 16.9887 62.6043 16.298H64.2703C64.5969 16.9887 64.9143 17.6887 65.2223 18.398C65.5303 19.1073 65.8383 19.854 66.1463 20.638C66.4636 21.422 66.7856 22.2527 67.1123 23.13C67.4483 24.0073 67.7983 24.964 68.1623 26H66.2583ZM63.4023 18.174C63.1876 18.6687 62.9403 19.2707 62.6603 19.98C62.3896 20.6893 62.1049 21.4593 61.8063 22.29H64.9983C64.6996 21.4593 64.4103 20.6847 64.1303 19.966C63.8503 19.2473 63.6076 18.65 63.4023 18.174ZM74.1346 23.102C73.9012 23.6247 73.6586 24.082 73.4066 24.474C73.1639 24.8567 72.8932 25.174 72.5946 25.426C72.3052 25.678 71.9786 25.8647 71.6146 25.986C71.2599 26.1073 70.8586 26.168 70.4106 26.168C70.1399 26.168 69.8552 26.14 69.5566 26.084C69.2672 26.028 69.0292 25.958 68.8426 25.874L69.1646 24.418C69.3419 24.4927 69.5286 24.5533 69.7246 24.6C69.9206 24.6373 70.1212 24.656 70.3266 24.656C70.7559 24.656 71.1106 24.558 71.3906 24.362C71.6799 24.166 71.9459 23.844 72.1886 23.396C71.7966 22.7613 71.4186 22.122 71.0546 21.478C70.6999 20.834 70.3686 20.2087 70.0606 19.602C69.7526 18.986 69.4679 18.398 69.2066 17.838C68.9546 17.278 68.7259 16.7647 68.5206 16.298H70.4946C70.6439 16.6807 70.8119 17.0913 70.9986 17.53C71.1946 17.9687 71.3999 18.4213 71.6146 18.888C71.8386 19.3547 72.0719 19.8307 72.3146 20.316C72.5572 20.8013 72.7999 21.2867 73.0426 21.772C73.3786 20.9413 73.7006 20.0547 74.0086 19.112C74.3166 18.1693 74.6059 17.2313 74.8766 16.298H76.7806C76.5566 16.9887 76.3326 17.642 76.1086 18.258C75.8846 18.8647 75.6606 19.448 75.4366 20.008C75.2219 20.5587 75.0026 21.0907 74.7786 21.604C74.5639 22.108 74.3492 22.6073 74.1346 23.102Z" fill="#F35A05"/>
</svg>
